HIERARCHY
ROOT Hips
{
  OFFSET 35.8832 97.8744 -343.619
  CHANNELS 6 Xposition Yposition Zposition Zrotation Xrotation Yrotation
  JOINT ToSpine
  {
    OFFSET -0.0105055 1.38907 -7.13956
    CHANNELS 3 Zrotation Xrotation Yrotation
    JOINT Spine
    {
      OFFSET 0.0105055 10 1
      CHANNELS 3 Zrotation Xrotation Yrotation
      JOINT Spine1
      {
        OFFSET 0 12 1.60637
        CHANNELS 3 Zrotation Xrotation Yrotation
        JOINT Neck
        {
          OFFSET 0 27 2.26658
          CHANNELS 3 Zrotation Xrotation Yrotation
          JOINT Head
          {
            OFFSET 0 9 2.12705
            CHANNELS 3 Zrotation Xrotation Yrotation
            End Site
            {
              OFFSET 0 11 2
            }
          }
        }
        JOINT LeftShoulder
        {
          OFFSET 8 19.6109 2.86452
          CHANNELS 3 Zrotation Xrotation Yrotation
          JOINT LeftArm
          {
            OFFSET 12 1 0.681055
            CHANNELS 3 Zrotation Xrotation Yrotation
            JOINT LeftForeArm
            {
              OFFSET 19 0 -1.52608
              CHANNELS 3 Zrotation Xrotation Yrotation
              JOINT LeftHand
              {
                OFFSET 23 0 0
                CHANNELS 3 Zrotation Xrotation Yrotation
                End Site
                {
                  OFFSET 10 0 0
                }
              }
            }
          }
        }
        JOINT RightShoulder
        {
          OFFSET -8 19.6109 2.86452
          CHANNELS 3 Zrotation Xrotation Yrotation
          JOINT RightArm
          {
            OFFSET -12 1 0.681055
            CHANNELS 3 Zrotation Xrotation Yrotation
            JOINT RightForeArm
            {
              OFFSET -19 0 -1.52608
              CHANNELS 3 Zrotation Xrotation Yrotation
              JOINT RightHand
              {
                OFFSET -23 0 0
                CHANNELS 3 Zrotation Xrotation Yrotation
                End Site
                {
                  OFFSET -10 0 0
                }
              }
            }
          }
        }
      }
    }
  }
  JOINT LeftUpLeg
  {
    OFFSET 9 -7.17245 0
    CHANNELS 3 Zrotation Xrotation Yrotation
    JOINT LeftLeg
    {
      OFFSET 0 -44.1113 0
      CHANNELS 3 Zrotation Xrotation Yrotation
      JOINT LeftFoot
      {
        OFFSET 0 -36.1829 0
        CHANNELS 3 Zrotation Xrotation Yrotation
        JOINT LeftToeBase
        {
          OFFSET 0 -4.84184 13
          CHANNELS 3 Zrotation Xrotation Yrotation
          End Site
          {
            OFFSET 0 1 6
          }
        }
      }
    }
  }
  JOINT RightUpLeg
  {
    OFFSET -9 -7.17245 0
    CHANNELS 3 Zrotation Xrotation Yrotation
    JOINT RightLeg
    {
      OFFSET 0 -44.0551 0
      CHANNELS 3 Zrotation Xrotation Yrotation
      JOINT RightFoot
      {
        OFFSET 0 -36.1469 0
        CHANNELS 3 Zrotation Xrotation Yrotation
        JOINT RightToeBase
        {
          OFFSET 0 -4.92256 13
          CHANNELS 3 Zrotation Xrotation Yrotation
          End Site
          {
            OFFSET 0 1 6
          }
        }
      }
    }
  }
}
MOTION
Frames:	12
Frame Time:	0.0333333
19.0517 97.1563 44.0812 1.62836 -5.1239 21.3234 0 0 0 12.3004 -1.44941 5.33248 -11.3681 6.59802 7.28354 -7.05896 9.57155 -1.2808 -3.39818 -0.854934 -3.22622 -30.3597 2.59338 -3.60997 -47.6247 4.51464 -3.61057 -1.34836 -9.24841 -11.6178 -11.1528 0.354385 -3.62185 24.4927 6.01136 15.8958 51.5802 9.3415 3.85192 2.03286 -0.992825 10.2293 3.45367 0.181855 6.00965 -8.90666 -7.40565 3.57555 -4.0617 12.5465 21.4511 13.8246 -8.43565 1.02478 0.722212 5.78135 -3.82262 -6.27295 4.27498 -14.6173 -0.0494182 50.645 19.5772 -6.81716 3.26527 0.183798 5.14744 -20.3214 -6.34396 
19.3786 96.724 45.2778 2.89419 -5.10809 24.291 0 0 0 9.9438 -1.01938 4.84315 -9.99139 6.85632 6.40686 -7.64457 10.3539 -1.73362 -3.49542 -1.54254 -3.96261 -30.6501 2.69083 -3.8199 -46.4026 4.94624 -6.66056 -1.01894 -8.02925 -12.5703 -10.3129 0.357636 -3.98575 24.2015 5.81812 15.453 51.5189 8.58277 2.61615 1.80271 -0.82296 10.858 3.23387 0.132352 4.69241 -10.0259 -7.23096 3.48411 -4.32648 15.6774 19.3612 14.2856 -10.1641 1.27694 0.76026 4.74005 -3.79959 -7.82181 0.915427 -12.1207 -0.0350847 56.3865 19.1081 -12.8808 0.457693 0.0463174 5.72078 -23.0725 -6.76986 
19.7298 96.504 46.4442 3.74671 -5.34987 27.8701 0 0 0 8.88093 -0.29694 4.17051 -9.59206 6.75224 5.62908 -7.78333 11.1551 -2.00248 -3.58534 -1.71855 -4.3333 -30.1405 2.77047 -4.14036 -45.9219 5.27965 -9.40363 -1.0086 -7.91852 -13.6361 -9.46721 0.401132 -4.84116 24.2511 5.71832 15.1032 51.4266 7.88078 1.47229 2.00207 -1.80164 10.3316 2.98531 0.122354 4.69227 -10.6554 -6.27112 3.24196 -4.21246 17.5236 16.9038 15.7085 -10.5649 1.4621 1.09451 1.73254 -4.78302 -8.44468 -1.71452 -9.63584 0.00696305 58.9737 15.2831 -16.6475 -2.69843 -0.386806 5.58792 -23.0459 -8.22933 
20.0366 96.5014 47.5598 4.23439 -5.83074 32.1562 0 0 0 7.9786 0.892052 3.1656 -8.6539 5.95804 4.41374 -8.11319 12.1608 -2.5081 -3.54494 -1.20059 -5.03904 -29.732 2.79788 -4.3017 -45.8985 4.03874 -11.4691 0.262085 -3.65875 -14.8834 -10.4807 0.408509 -4.44924 23.7537 5.58647 14.9638 51.9106 7.60436 0.30383 2.38815 -2.99016 9.21758 3.16092 0.134885 4.88713 -10.6902 -4.7158 3.11791 -3.92103 18.3851 13.0346 16.475 -11.4027 1.65616 0.801714 2.04176 -3.66011 -8.08453 -3.64858 -6.87779 0.0230194 58.9581 8.67242 -18.9368 -3.97341 -0.658022 5.56783 -22.7818 -7.85062 
20.3364 96.7538 48.6095 4.40222 -6.1606 36.8932 0 0 0 7.39189 1.62529 2.20118 -7.49212 5.36894 3.23959 -8.3675 13.5282 -3.04901 -3.21272 -1.21857 -5.86851 -30.2016 2.89004 -4.45618 -44.8699 4.36872 -13.5936 0.194623 -3.72775 -15.7228 -9.83204 0.383285 -4.4534 23.9701 5.56188 14.7601 51.5777 8.00158 -0.888192 2.85489 -4.17161 8.2467 3.243 0.132781 4.68339 -10.1884 -2.97783 3.24161 -3.7835 18.0548 9.24326 17.0433 -11.4402 1.71065 0.995887 2.3545 -4.50341 -7.15255 -5.45402 -3.77543 0.0352199 57.2047 0.251025 -18.1653 -7.40646 -1.18333 4.7216 -18.3477 -6.21771 
20.6343 96.9006 49.6013 4.59273 -6.1541 41.9395 0 0 0 6.72833 2.11019 1.2214 -6.52439 4.66928 2.08619 -8.127 15.138 -4.02599 -3.08853 -1.68319 -6.93554 -30.3422 2.95295 -4.59752 -44.3189 4.57634 -15.3391 0.345482 -3.13393 -16.1631 -9.92422 0.395042 -4.55958 24.0274 5.50771 14.5528 51.7613 8.25619 -2.14713 3.06373 -4.26908 7.7171 3.33788 0.12379 4.24729 -9.66638 -1.42648 2.98937 -3.50016 17.7406 3.04965 19.5352 -10.0793 1.74049 0.544732 -0.301143 -2.20622 -6.54952 -7.11013 -1.61006 0.0232818 53.9946 -8.87004 -18.2195 -10.8554 -1.75139 4.01941 -15.074 -3.16831 
20.958 97.0105 50.5671 4.79162 -5.69398 47.1608 0 0 0 5.91354 2.37049 0.459364 -5.82918 3.95135 1.13011 -7.53184 16.5846 -5.50587 -3.15387 -2.15411 -8.31321 -30.4016 3.03352 -4.80548 -43.715 6.28748 -17.0583 0.0518616 -3.97607 -15.5789 -9.17773 0.422662 -5.25621 23.8883 5.36447 14.1656 52.3841 7.28993 -3.596 2.74267 -2.97116 7.44226 3.80658 0.140441 4.22019 -9.38433 -1.02268 2.79122 -3.03708 18.643 -1.191 17.9434 -10.9458 1.73414 0.946504 0.783663 -4.05751 -6.39643 -8.73127 -0.0473576 -0.0174461 49.6457 -15.3075 -20.5763 -13.0839 -2.38075 3.61672 -13.3587 -3.97084 
21.2716 97.0003 51.5654 4.84639 -5.10338 52.8772 0 0 0 4.78328 1.80789 -0.357627 -4.84176 4.40412 0.102856 -6.71652 17.1596 -7.15611 -2.90438 -2.5612 -9.75837 -29.8341 3.06565 -5.02266 -44.5513 6.50973 -18.7703 0.152653 -3.56807 -14.8788 -9.27551 0.395925 -4.87989 23.6586 5.23688 13.8763 53.1352 7.01809 -4.75176 2.88204 -4.11075 7.75066 3.23259 0.118196 4.18938 -8.98984 -0.597094 2.44872 -2.69104 19.2333 -6.94004 19.2699 -11.0253 1.87772 0.913956 1.31847 -3.98122 -6.24754 -10.2746 1.55527 -0.0407966 45.0199 -16.8601 -23.3085 -13.023 -2.69731 3.79354 -14.1849 -6.2846 
21.6166 96.8726 52.579 4.88918 -4.55304 58.6261 0 0 0 3.40393 1.82417 -1.03062 -3.56031 4.16788 -0.831398 -5.46722 17.8564 -9.16857 -2.77511 -2.97342 -11.365 -29.9148 3.14899 -5.23488 -44.0413 8.5428 -20.0278 0.0137405 -3.45589 -13.8167 -9.59817 0.400482 -4.76545 23.8117 5.18409 13.6201 53.49 6.43217 -6.01054 2.62142 -3.26912 7.88573 3.23526 0.124033 4.38974 -8.42284 -0.527727 2.18778 -2.3176 20.5653 -11.879 21.0373 -11.403 2.12247 1.36308 -0.152309 -5.71081 -6.17013 -11.6659 3.63499 -0.000424367 40.6345 -14.5896 -23.1025 -12.7491 -2.60702 3.54827 -13.0198 -7.08979 
22.1064 96.7601 53.5738 5.38696 -4.04823 63.682 0 0 0 2.0982 2.51356 -1.29196 -2.71423 3.69578 -1.26253 -4.00392 18.4937 -11.2825 -2.53992 -3.49595 -12.993 -29.5968 3.22689 -5.52895 -44.0674 10.3404 -20.8912 -0.393256 -3.59861 -12.2375 -9.70953 0.440803 -5.18715 23.8293 5.04441 13.1562 53.9967 6.22776 -6.96796 2.37086 -2.14352 8.38182 3.6852 0.136969 4.25914 -7.96807 -0.489098 2.28626 -1.98781 22.9257 -17.1966 20.4939 -12.3382 2.23945 1.26788 -0.369666 -5.27955 -5.8886 -12.7282 6.7975 -0.0172946 36.0904 -11.2874 -24.3366 -10.4072 -2.25407 4.50014 -17.3846 -6.17049 
22.7658 96.7297 54.4505 5.59633 -3.30701 68.157 0 0 0 1.29924 2.67882 -1.44218 -2.47021 3.51903 -1.37099 -2.03762 18.8741 -13.4807 -2.48325 -4.24277 -14.4412 -29.1313 3.2646 -5.75154 -44.4838 11.5546 -20.8234 -1.0013 -5.04567 -11.2731 -9.83054 0.424047 -4.92766 24.2954 5.1543 13.2706 54.2498 6.52924 -7.71754 2.47796 -2.43892 8.73406 4.02135 0.140567 3.92293 -7.8894 -0.0142983 1.7967 -1.53305 23.5507 -21.1448 20.7744 -12.8 2.35481 1.67003 0.499959 -7.01409 -5.7688 -14.3339 9.797 0.00385462 32.7067 -5.55485 -22.3476 -9.67864 -1.91368 4.11515 -15.7187 -7.35944 
23.3925 96.6249 55.2824 5.56136 -2.53843 72.6666 0 0 0 0.303065 2.84745 -1.58258 -1.9535 3.44391 -1.54181 0.270097 18.2026 -15.8829 -3.31663 -4.31801 -15.6984 -29.255 3.29913 -5.8174 -44.2643 12.5331 -20.3221 -1.38066 -5.66377 -10.4969 -9.82971 0.422901 -4.91454 24.5787 5.22247 13.3419 54.4808 7.74069 -7.66106 3.05334 -3.9013 8.80081 3.02388 0.161846 6.43064 -7.53515 -0.217411 1.61658 -1.158 25.0617 -25.5834 20.7205 -13.6414 2.50576 1.66392 1.93214 -7.03297 -5.37076 -16.0185 11.5906 0.00719062 29.3446 -1.06895 -22.2248 -7.75314 -1.52552 4.34264 -16.7498 -6.86796 
